<svg viewBox="0 0 1024 1024" xmlns="http://www.w3.org/2000/svg" width="32" height="32">
  <path d="M928 352c8.8 0 16-7 16-16s-7.2-16-16-16H688V80c0-8.8-7.2-16-16-16s-16 7.2-16 16v240H368V80c0-8.8-7.2-16-16-16s-16 7.2-16 16v240H96c-8.8 0-16 7.2-16 16s7.2 16 16 16h240v288H96c-8.8 0-16 7.2-16 16s7.2 16 16 16h240v272c0 8.8 7.2 16 16 16s16-7.2 16-16V672h288v272c0 8.8 7.2 16 16 16s16-7.2 16-16V672h240c8.8 0 16-7.2 16-16s-7.2-16-16-16H688V352h240zM656 640H368V352h288v288zm352 336V48c0-26.5-21.5-48-48-48H64C37.5 0 16 21.5 16 48v928c0 26.5 21.5 48 48 48h896c26.5 0 48-21.5 48-48zm-960 0V48c0-8.8 7.2-16 16-16h896c8.8 0 16 7.2 16 16v928c0 8.8-7.2 16-16 16H64c-8.8 0-16-7.2-16-16z"/>
</svg>